:SAMPLES-PER-SECOND 30
:FRAME-RANGE 1-1390
:FULLY-SPECIFIED
:DEGREES
522
root  -27.7819 37.6432 -3.38699 -13.2892 33.2736 -4.44862
RightUpLeg  -6.9372 -8.60562 11.9034
RightLeg  35.0835 -13.9715 -10.5764
RightFoot  -14.992 -0.209033 -3.37906
RightToes  -2.9104e-010 0 -3.6325e-017
Spine  18.9022 -0.720991 -5.07148
Spine1  0.761248 -4.73269 1.50697
HEad  25.3409 7.72986 -2.6857
LeftShoulder1  3.42956 -5.25131 -33.1694
LeftArm  91.4449 -35.0139 -83.4925
LeftForeArm  -8.4479 -19.2668 -9.99295
LeftHand  -0.0262649 3.21469 0.488124
RightShoulder  14.1263 22.5184 47.3807
RightArm  38.877 8.78274 24.2703
RightForeArm  16.8433 19.4363 6.78361
RightHand  0.760602 5.47303 7.78351
LeftUpLeg  -90.6621 22.1343 -69.4672
LeftLeg  122.4 -2.17302 2.66929
LeftFoot  10.5108 2.47426 -13.1056
LeftToes  5.45371e-012 -1.3743e-010 1.09575e-010
523
root  -27.6713 37.9811 -3.21867 -13.4576 33.5926 -4.2748
RightUpLeg  -7.82418 -9.91666 11.4238
RightLeg  37.1664 -13.7475 -11.1972
RightFoot  -11.4602 -0.0786525 -1.06559
RightToes  -2.9104e-010 0 -3.6325e-017
Spine  19.2516 -0.619587 -4.29557
Spine1  0.140292 -4.34335 0.768052
HEad  25.4401 7.72178 -2.96888
LeftShoulder1  3.41018 -5.17357 -33.2958
LeftArm  90.8136 -35.1019 -84.0777
LeftForeArm  -7.05454 -19.0109 -10.2113
LeftHand  -0.0280446 3.51184 0.402581
RightShoulder  14.0448 22.4637 47.2032
RightArm  38.015 8.53183 24.4663
RightForeArm  17.6133 18.8627 7.27293
RightHand  0.785583 5.57779 7.96549
LeftUpLeg  -90.8724 21.7569 -69.318
LeftLeg  122.383 -2.77679 3.55062
LeftFoot  11.5243 2.87659 -14.5112
LeftToes  5.45371e-012 -1.3743e-010 1.09575e-010
524
root  -27.6158 38.0147 -3.11575 -13.24 34.1263 -4.02161
RightUpLeg  -8.95834 -11.5085 11.2854
RightLeg  37.3138 -15.1125 -12.2859
RightFoot  -10.6977 -0.066022 -1.13523
RightToes  -2.9104e-010 0 -3.6325e-017
Spine  19.3615 -0.458835 -3.86465
Spine1  0.0875384 -4.01487 0.198539
HEad  24.6916 7.4653 -3.27247
LeftShoulder1  3.4252 -5.19664 -33.364
LeftArm  94.7725 -34.6637 -84.472
LeftForeArm  -10.6449 -20.0154 -9.22181
LeftHand  -0.0273504 3.40809 0.442208
RightShoulder  13.875 22.5444 46.4646
RightArm  38.0359 8.11587 24.5038
RightForeArm  17.4399 19.0542 7.09098
RightHand  0.778175 5.75709 7.75021
LeftUpLeg  -90.8184 21.2592 -69.6312
LeftLeg  121.868 -3.02638 3.99371
LeftFoot  11.6423 3.29268 -16.4537
LeftToes  5.45371e-012 -1.3743e-010 1.09575e-010
525
root  -27.5847 37.8055 -2.93418 -13.3108 35.3438 -4.35452
RightUpLeg  -7.48942 -12.0426 11.7135
RightLeg  29.9645 -17.8488 -11.0353
RightFoot  -14.2283 -0.218165 -4.84088
RightToes  -2.9104e-010 0 -3.6325e-017
Spine  19.2626 -0.529625 -3.71908
Spine1  0.463474 -4.12644 0.338286
HEad  24.3988 7.26968 -3.41511
LeftShoulder1  3.42535 -5.23125 -33.2108
LeftArm  95.2252 -34.562 -84.9188
LeftForeArm  -10.3204 -20.0734 -9.12969
LeftHand  -0.0280629 3.34096 0.517255
RightShoulder  13.8109 22.5691 46.1963
RightArm  39.8243 7.53523 24.1457
RightForeArm  15.602 20.1997 6.13369
RightHand  0.706491 5.49258 7.19484
LeftUpLeg  -90.2427 21.1119 -69.3627
LeftLeg  121.757 -1.66611 1.98226
LeftFoot  11.5971 3.68138 -18.3624
LeftToes  5.45371e-012 -1.3743e-010 1.09575e-010
526
root  -27.5407 37.2514 -2.74884 -13.2945 35.6895 -4.75479
RightUpLeg  -9.70289 -9.62713 12.7468
RightLeg  35.1432 -18.3315 -13.6202
RightFoot  -18.156 -0.319694 -3.30706
RightToes  -2.9104e-010 0 -3.6325e-017
Spine  19.7837 -0.476784 -2.72103
Spine1  0.0702674 -3.78586 -0.326005
HEad  22.9184 7.07371 -4.05047
LeftShoulder1  3.45429 -5.33612 -33.0743
LeftArm  95.6908 -34.6258 -85.213
LeftForeArm  -10.8187 -20.2052 -8.99863
LeftHand  -0.032653 3.60294 0.53714
RightShoulder  13.7777 22.5418 46.1319
RightArm  39.8867 7.0441 24.0408
RightForeArm  15.3716 20.8485 5.57081
RightHand  0.718638 5.39666 7.39459
LeftUpLeg  -90.4054 21.1505 -69.5518
LeftLeg  121.888 -0.781078 0.654048
LeftFoot  11.0852 3.75157 -19.1156
LeftToes  5.45371e-012 -1.3743e-010 1.09575e-010
527
root  -27.5308 36.6723 -2.65334 -13.8685 35.3773 -5.59393
RightUpLeg  -11.7885 -8.82687 13.9653
RightLeg  39.8919 -18.2778 -15.9424
RightFoot  -19.6403 -0.357398 -3.09487
RightToes  -2.9104e-010 0 -3.6325e-017
Spine  19.6012 -0.704069 -2.02811
Spine1  1.27922 -3.8298 -0.634004
HEad  21.2424 8.05999 -5.12755
LeftShoulder1  3.44707 -5.25865 -33.3355
LeftArm  93.9351 -35.6042 -84.8491
LeftForeArm  -8.81237 -19.7191 -9.46948
LeftHand  -0.0306394 3.22612 0.552838
RightShoulder  14.531 23.5602 46.8234
RightArm  37.0957 7.98531 23.5955
RightForeArm  17.4774 19.4822 6.64982
RightHand  0.684285 5.32218 7.08056
LeftUpLeg  -90.7408 22.091 -68.9084
LeftLeg  121.812 -0.199678 -0.212198
LeftFoot  10.861 3.55944 -18.3473
LeftToes  5.45371e-012 -1.3743e-010 1.09575e-010
528
root  -27.5062 36.1798 -2.41257 -14.7211 35.9446 -6.6633
RightUpLeg  -12.9832 -9.83213 15.0535
RightLeg  43.2192 -17.6394 -17.2265
RightFoot  -21.5382 -0.440573 -3.30392
RightToes  -2.9104e-010 0 -3.6325e-017
Spine  19.5365 -0.87999 -2.90704
Spine1  2.1023 -4.42072 1.1218
HEad  21.1216 8.99795 -5.4346
LeftShoulder1  3.4615 -5.29391 -33.342
LeftArm  88.7456 -36.2646 -85.0357
LeftForeArm  -3.40925 -18.3316 -10.7811
LeftHand  -0.0335858 3.6204 0.962488
RightShoulder  14.6295 23.6418 47.0026
RightArm  35.9469 8.46437 23.8758
RightForeArm  18.9224 18.7462 7.25345
RightHand  0.679077 5.46775 6.92143
LeftUpLeg  -90.1413 22.8545 -67.82
LeftLeg  122.279 0.472034 -1.19807
LeftFoot  10.4575 3.31303 -17.4252
LeftToes  5.45371e-012 -1.3743e-010 1.09575e-010
529
root  -27.5035 35.6669 -2.11296 -15.5384 35.9952 -7.30643
RightUpLeg  -13.8114 -9.94431 15.9751
RightLeg  46.6024 -16.9436 -18.5548
RightFoot  -23.3264 -0.404183 -2.34571
RightToes  -2.9104e-010 0 -3.6325e-017
Spine  20.0978 -0.781753 -3.04018
Spine1  1.58063 -4.35287 1.13988
HEad  21.5615 9.43454 -5.00411
LeftShoulder1  3.4698 -5.35711 -33.1565
LeftArm  87.1713 -36.0664 -85.1532
LeftForeArm  -1.34426 -17.9445 -11.0964
LeftHand  -0.0323929 3.5316 0.878272
RightShoulder  14.3999 22.8143 47.7573
RightArm  36.4811 7.76502 23.7205
RightForeArm  18.5897 19.4226 6.62474
RightHand  0.641033 5.42388 6.54603
LeftUpLeg  -89.8612 22.8755 -67.4064
LeftLeg  123.276 0.881505 -1.74066
LeftFoot  10.746 3.46335 -17.9586
LeftToes  5.45371e-012 -1.3743e-010 1.09575e-010
530
root  -27.4513 35.3401 -1.79888 -16.1539 35.9576 -7.49196
RightUpLeg  -13.8083 -11.0162 16.217
RightLeg  48.6164 -16.1456 -18.9879
RightFoot  -24.7062 -0.461098 -2.50685
RightToes  -2.9104e-010 0 -3.6325e-017
Spine  19.7131 -0.748299 -3.47042
Spine1  2.26768 -4.3398 1.1012
HEad  21.719 10.2413 -4.89447
LeftShoulder1  3.42761 -5.34851 -32.7195
LeftArm  92.8653 -35.1733 -85.2217
LeftForeArm  -6.8899 -19.4443 -9.68483
LeftHand  -0.0274213 3.14071 0.792601
RightShoulder  14.0866 22.3352 47.5911
RightArm  36.8407 6.87946 23.796
RightForeArm  17.4443 20.5093 5.6915
RightHand  0.623654 5.20329 6.50664
LeftUpLeg  -89.1756 22.5825 -67.5371
LeftLeg  123.981 0.6415 -1.37115
LeftFoot  11.7328 3.71398 -18.4135
LeftToes  5.45371e-012 -1.3743e-010 1.09575e-010
531
root  -27.3647 35.1263 -1.52895 -16.5679 35.3867 -7.48815
RightUpLeg  -13.436 -11.3429 16.3307
RightLeg  49.8645 -15.4244 -19.0002
RightFoot  -25.7793 -0.444133 -2.12688
RightToes  -2.9104e-010 0 -3.6325e-017
Spine  20.0343 -0.550738 -3.66739
Spine1  1.95632 -4.18484 0.975964
HEad  21.7805 11.4125 -5.10343
LeftShoulder1  3.37339 -5.26774 -32.4577
LeftArm  92.8692 -34.6926 -85.6355
LeftForeArm  -6.89948 -19.3928 -9.74751
LeftHand  -0.0262471 3.43111 1.20562
RightShoulder  13.7759 21.8618 47.4157
RightArm  37.012 6.08255 23.6178
RightForeArm  16.3675 22.1364 4.58813
RightHand  0.572637 4.80307 6.20985
LeftUpLeg  -89.723 23.433 -68.8511
LeftLeg  124.29 0.319451 -0.919562
LeftFoot  12.4743 3.47055 -16.7229
LeftToes  5.45371e-012 -1.3743e-010 1.09575e-010
532
root  -27.2727 35.0162 -1.38319 -16.2089 35.6726 -7.49944
RightUpLeg  -13.9662 -11.4697 16.2953
RightLeg  50.71 -15.0788 -19.1524
RightFoot  -26.2762 -0.362907 -1.40974
RightToes  -2.9104e-010 0 -3.6325e-017
Spine  20.0251 -0.585404 -4.33889
Spine1  1.44834 -4.44736 1.78524
HEad  21.2831 12.7009 -5.54043
LeftShoulder1  3.33345 -5.25377 -32.0625
LeftArm  89.7623 -34.9263 -86.0672
LeftForeArm  -4.82686 -18.5633 -10.5993
LeftHand  -0.0289016 3.87322 1.26266
RightShoulder  13.4948 21.5369 47.0481
RightArm  36.1269 5.82115 23.9442
RightForeArm  18.5715 23.5232 4.09365
RightHand  0.561358 4.85567 6.04733
LeftUpLeg  -90.8795 23.2933 -70.431
LeftLeg  124.034 0.733986 -1.49643
LeftFoot  12.096 3.3372 -16.3547
LeftToes  5.45371e-012 -1.3743e-010 1.09575e-010
533
root  -27.2107 34.9597 -1.23418 -16.3287 36.8916 -7.94633
RightUpLeg  -14.2413 -12.3735 16.3081
RightLeg  51.1288 -14.8473 -19.1569
RightFoot  -26.6232 -0.268257 -0.654004
RightToes  -2.9104e-010 0 -3.6325e-017
Spine  20.4645 -0.659202 -4.86319
Spine1  0.69652 -4.91209 2.93435
HEad  20.269 13.4039 -5.74042
LeftShoulder1  3.29343 -5.36472 -31.1307
LeftArm  87.1506 -35.2586 -86.8469
LeftForeArm  -2.72469 -17.8377 -11.2893
LeftHand  -0.0269843 3.64653 1.08849
RightShoulder  13.4333 21.4118 47.0722
RightArm  33.638 5.50622 23.8126
RightForeArm  21.961 24.584 4.10372
RightHand  0.538947 4.9075 5.76199
LeftUpLeg  -91.79 23.2313 -71.5077
LeftLeg  123.983 0.728568 -1.49133
LeftFoot  12.2064 3.33315 -16.261
LeftToes  5.45371e-012 -1.3743e-010 1.09575e-010
